<svg id="company-logo" xmlns="http://www.w3.org/2000/svg" width="251.225" height="60.834" viewBox="0 0 251.225 60.834">
  <g id="Layer_2" data-name="Layer 2">
    <path id="Path_1" data-name="Path 1" d="M194.364,128.682a28.99,28.99,0,0,0-10.53,13.132s4.336-27.378,26.387-22.051c-.124.5-3.964,3.717-6.194,9.787-.124.124-7.929,15.609-19.574,16.105C184.453,145.655,189.068,133.839,194.364,128.682Z" transform="translate(-146.112 -88.389)" fill="#efedfb"/>
    <path id="Path_2" data-name="Path 2" d="M191.952,132.853a20.54,20.54,0,0,1,3.166-3.922c.016-.221-1.483.72-4.026,3.205-2.195-.162-3.577,1.069-3.774.964.713-1.13,6.516-17.572,23.936-13.275a25.8,25.8,0,0,0-6.271,9.516c-.743,1.657-4,6.69-4.8,7.217C199.765,136.442,192.824,133.26,191.952,132.853Z" transform="translate(-147.006 -88.399)" fill="#efedfb"/>
    <path id="Path_3" data-name="Path 3" d="M200.4,127.123c-1.672-.867-3.778-1.362-5.234-2.539.062-.557,6.163-6.907,18.118-4.638a25.8,25.8,0,0,0-6.271,9.516c-.743,1.657-4,6.69-4.8,7.217C201.8,136.561,203.653,134.928,200.4,127.123Z" transform="translate(-149.021 -88.488)" fill="#efedfb" opacity="0.29"/>
    <path id="Path_4" data-name="Path 4" d="M200.38,127.025c-1.672-.867-3.778-1.362-5.234-2.54.062-.557,6.69-7.573,18.118-4.637a25.786,25.786,0,0,0-6.271,9.516c-.743,1.657-4,6.69-4.8,7.216C201.774,136.464,203.632,134.83,200.38,127.025Z" transform="translate(-149.015 -88.404)" fill="#efedfb" opacity="0.47"/>
    <path id="Path_5" data-name="Path 5" d="M173.584,95.26s-.65,19.233,3.438,27.038c0,.372,9.942-7.712,4.46-28.989-1.765-6.039-2.973-13.844-2.6-15.516,0,0-17.56,11.428-10.5,33.356-.093.186,3.531,6.968,4.739,8.176C173.026,119.417,170.8,104.365,173.584,95.26Z" transform="translate(-141.715 -77.792)" fill="#efedfb"/>
    <path id="Path_6" data-name="Path 6" d="M152.41,134.384s2.787-1.672,14.309,5.575c.186,0-17-22.113-33.634-8.455,0,0,4.646,0,15.516,11.335.093.279,7.8,5.668,20.441,2.23C168.855,145.069,159.657,136.242,152.41,134.384Z" transform="translate(-133.084 -90.437)" fill="#efedfb"/>
    <path id="Path_7" data-name="Path 7" d="M194.443,138.792" transform="translate(-148.835 -93.451)" fill="#efedfb"/>
  </g>
  <g id="Layer_3" data-name="Layer 3" transform="translate(65.225 21.834)">
    <text id="Smarterderma" transform="translate(0 31)" fill="#efedfb" font-size="31" font-family="Helvetica-Compressed, Helvetica"><tspan x="0" y="0">Smarter</tspan><tspan y="0" font-family="Helvetica-Light, Helvetica" font-weight="300">derma</tspan></text>
  </g>
</svg>
