<svg xmlns="http://www.w3.org/2000/svg" xmlns:xlink="http://www.w3.org/1999/xlink" width="33.366" height="29.733" viewBox="0 0 33.366 29.733">
  <defs>
    <linearGradient id="linear-gradient" y1="0.5" x2="1" y2="0.5" gradientUnits="objectBoundingBox">
      <stop offset="0" stop-color="#ea5d91"/>
      <stop offset="1" stop-color="#903f98"/>
    </linearGradient>
    <linearGradient id="linear-gradient-2" y1="0.5" x2="1" y2="0.5" gradientUnits="objectBoundingBox">
      <stop offset="0" stop-color="#903f98"/>
      <stop offset="0.133" stop-color="#8a3c92"/>
      <stop offset="0.303" stop-color="#7b3682"/>
      <stop offset="0.493" stop-color="#622b68"/>
      <stop offset="0.698" stop-color="#401c43"/>
      <stop offset="0.912" stop-color="#140815"/>
      <stop offset="1"/>
    </linearGradient>
  </defs>
  <g id="Layer_2" data-name="Layer 2" transform="translate(-133.084 -77.792)">
    <path id="Path_1" data-name="Path 1" d="M189.3,124.063a15.052,15.052,0,0,0-5.467,6.818s2.251-14.215,13.7-11.449a16.714,16.714,0,0,0-3.216,5.081c-.064.064-4.117,8.1-10.163,8.362C184.155,132.875,186.551,126.741,189.3,124.063Z" transform="translate(-31.164 -25.351)" fill="#c33e75"/>
    <path id="Path_2" data-name="Path 2" d="M189.724,126.246a10.665,10.665,0,0,1,1.644-2.036c.008-.115-.77.374-2.091,1.664a4.2,4.2,0,0,0-1.96.5c.37-.587,3.383-9.123,12.428-6.892a13.4,13.4,0,0,0-3.256,4.941A19.151,19.151,0,0,1,194,128.17C193.78,128.11,190.177,126.458,189.724,126.246Z" transform="translate(-33.304 -25.373)" fill="url(#linear-gradient)"/>
    <path id="Path_3" data-name="Path 3" d="M197.885,123.438a15.727,15.727,0,0,1-2.718-1.318c.032-.289,3.2-3.586,9.407-2.408a13.4,13.4,0,0,0-3.256,4.941,19.151,19.151,0,0,1-2.492,3.747C198.608,128.338,199.573,127.49,197.885,123.438Z" transform="translate(-38.124 -25.586)" fill="#c14695" opacity="0.29"/>
    <path id="Path_4" data-name="Path 4" d="M197.864,123.231a15.73,15.73,0,0,1-2.718-1.319c.032-.289,3.473-3.932,9.407-2.408a13.388,13.388,0,0,0-3.256,4.941,19.135,19.135,0,0,1-2.492,3.747C198.587,128.131,199.552,127.283,197.864,123.231Z" transform="translate(-38.111 -25.387)" opacity="0.47" fill="url(#linear-gradient-2)"/>
    <path id="Path_5" data-name="Path 5" d="M170.277,86.861s-.338,9.986,1.785,14.038c0,.193,5.162-4,2.316-15.051-.917-3.136-1.544-7.188-1.351-8.056a15.056,15.056,0,0,0-5.451,17.318,24.9,24.9,0,0,0,2.46,4.245C169.988,99.4,168.83,91.589,170.277,86.861Z" transform="translate(-20.647)" fill="#e86a97"/>
    <path id="Path_6" data-name="Path 6" d="M143.118,130.858s1.447-.868,7.429,2.894c.1,0-8.828-11.481-17.463-4.39,0,0,2.412,0,8.056,5.885.048.145,4.052,2.943,10.613,1.158C151.657,136.406,146.881,131.823,143.118,130.858Z" transform="translate(0 -30.248)" fill="#9d2244"/>
    <path id="Path_7" data-name="Path 7" d="M194.443,138.792" transform="translate(-37.679 -37.459)" fill="rgba(195,62,117,0.64)"/>
  </g>
</svg>
